<!DOCTYPE svg PUBLIC "-//W3C//DTD SVG 1.1//EN" "http://www.w3.org/Graphics/SVG/1.1/DTD/svg11.dtd" [
	<!ENTITY ns_flows "http://ns.adobe.com/Flows/1.0/">
]><svg xmlns="http://www.w3.org/2000/svg" width="50" height="50" viewBox="-1.708 -2.544 50 50"><path fill="#FFF" d="M23.276 24.817h.033c6.616-.012 12.401-5.507 12.385-12.434C35.676 5.571 30.039.004 23.293 0c-6.747.004-12.386 5.571-12.402 12.383-.015 6.927 5.77 12.422 12.385 12.434z"/><path fill="#FFF" d="M46.471 39.341c-1.842-7.166-4.833-10.353-11.104-14.185-.633-.385-1.015-.346-1.575.165-2.402 2.185-5.258 3.452-8.477 3.854-.685.085-1.36.129-2.022.134-.664-.005-1.339-.049-2.024-.134-3.217-.401-6.073-1.669-8.476-3.854-.56-.511-.942-.55-1.573-.165C4.948 28.99 1.956 32.175.114 39.341c-.528 2.06.645 5.569 6.351 5.569h33.654c5.706.001 6.881-3.509 6.352-5.569z"/></svg>