<!DOCTYPE svg PUBLIC "-//W3C//DTD SVG 1.1//EN" "http://www.w3.org/Graphics/SVG/1.1/DTD/svg11.dtd" [
	<!ENTITY ns_flows "http://ns.adobe.com/Flows/1.0/">
]><svg xmlns="http://www.w3.org/2000/svg" width="50" height="50" viewBox="-0.249 -4.022 50 50"><path fill="#FFF" d="M.132 3.457c.477 1.188 1.522 1.47 2.634 1.532 1.105.061 2.215.024 3.322.012.477-.005.746.088.827.667.111.79.399 1.554.594 2.335.184.733.352 1.471.515 2.211.3 1.357.577 2.722.896 4.076.329 1.402.714 2.792 1.042 4.195.316 1.356.564 2.729.886 4.084.462 1.948.984 3.881 1.441 5.83.354 1.514 1.21 2.597 2.625 3.222.514.229 1.065.373 1.69.589-1.109.996-1.774 2.191-1.924 3.632-.158 1.515.376 2.847 1.413 3.878 1.867 1.859 4.21 2.139 6.426.724 1.177-.753 1.87-1.883 2.184-3.21.475-2.01-.487-3.588-1.842-5.119h9.225c-2.384 2.676-2.772 5.402-.164 7.878 1.822 1.73 3.923 1.979 5.987.474 3.263-2.381 2.969-5.338.435-8.457 1.02 0 1.819.026 2.618-.005.788-.032 1.617-.807 1.846-1.562.489-1.608-.634-3.211-2.475-3.196-7.115.062-14.23.024-21.347.024-1.993 0-1.993 0-2.395-1.948-.191-.934-.188-.94.767-.94 3.62-.001 7.238 0 10.858-.001 4.283-.001 8.569-.006 12.853-.007 1.77 0 3.075-.75 3.774-2.4.437-1.031.796-2.094 1.193-3.143.597-1.569 1.209-3.133 1.787-4.709.568-1.554 1.104-3.119 1.659-4.678.412-1.156-.018-2.587-.018-2.587-.677-1.701-1.909-2.573-3.705-2.574-8.024-.005-16.048-.004-24.071-.004-.172 0-.344-.004-.516.009-.879.064-1.803 1.476-1.167 2.357.522.724 1.143.811 1.904.811 7.335-.007 14.669-.004 22.005-.004.565 0 1.132-.026 1.697.001.717.036.996.467.767 1.127-.448 1.287-.881 2.582-1.352 3.862-.889 2.423-1.809 4.835-2.697 7.258-.515 1.401-.498 1.409-2.039 1.41-7.063.001-14.128.001-21.191 0-1.008 0-2.02.016-3.026-.025-.207-.007-.543-.199-.586-.368-.311-1.205-.55-2.427-.833-3.639-.184-.784-.424-1.555-.606-2.338-.323-1.379-.618-2.762-.929-4.144-.166-.738-.329-1.477-.511-2.211-.333-1.349-.785-2.679-.994-4.046-.4-2.599-2.506-4.362-5.105-4.34-1.305.011-2.608-.008-3.912.008C1.541.021.544.444.2 1.411c0 .001-.401 1.216-.068 2.046z"/></svg>